<svg width="163" height="44" viewBox="0 0 163 44" fill="none" xmlns="http://www.w3.org/2000/svg">
<path d="M1.44064 35.3274C0.805476 35.3274 0.0420771 35.1165 0 34.1018C0 33.425 0.338621 32.9601 1.31341 32.7062C3.2199 32.1564 3.51644 31.3956 3.47437 29.7461V11.4974C3.51644 9.84787 3.2199 9.08709 1.31341 8.53725C0.338621 8.32631 0 7.86045 0 7.18464C0 6.21193 0.805476 5.958 1.44064 5.958H7.33043L10.0003 5.91602C10.8479 5.91602 11.8647 6.12695 11.9068 7.18464C11.9068 7.86145 11.483 8.3683 10.2117 8.58024C7.75421 9.21505 7.33043 10.0178 7.37251 11.7093V28.2245C7.37251 31.7335 8.6749 32.4953 13.632 32.4953C15.0836 32.4953 16.6265 32.3603 17.8898 31.5805C19.0609 30.8577 19.7081 29.6931 20.4915 28.6064C20.6789 28.3475 20.9033 28.0426 21.0987 27.7796C21.3872 27.3917 21.8621 27.1918 22.3419 27.2548C23.0042 27.3418 23.4981 27.9056 23.4981 28.5714V28.6034C23.4981 29.2932 23.0573 32.0744 22.5102 33.8489C22.1716 34.9055 21.6206 35.2864 20.2221 35.2864H3.51644L1.43964 35.3284L1.44064 35.3274ZM22.1045 42.5583C22.1045 42.3474 22.2738 42.0934 22.7407 41.6286C24.2054 40.156 25.628 38.6275 27.1487 37.2189C27.5675 36.831 27.9692 36.4011 28.1786 35.8713C28.4111 35.2814 28.2748 34.8186 28.0434 34.2677C27.7699 33.6179 27.3902 33.0021 27.0636 32.3743C26.715 31.7035 26.3763 31.0287 26.0457 30.3489C25.3825 28.9853 24.7534 27.6037 24.1533 26.2111C22.9681 23.4579 21.8991 20.6557 20.9173 17.8235C20.4084 16.386 19.9005 15.8781 19.0108 15.4132C18.2054 14.9904 17.8667 14.6945 17.8667 14.1446C17.8667 13.4258 18.2905 13.0029 19.3495 13.0029H26.5527C27.5274 13.0029 27.9081 13.2989 27.9081 14.0176C27.9081 14.5675 27.5695 14.9054 26.5947 15.2443C24.7724 15.8781 24.6882 16.5549 25.0269 17.6966C26.3823 22.1783 28.1205 26.407 30.2384 30.1699C30.577 30.7618 30.9587 30.6348 31.2132 30.1279C33.2048 26.3221 34.7727 22.1363 36.001 17.8235C36.3817 16.5549 36.3396 15.9631 34.9841 15.4982C33.5855 15.0334 33.2048 14.6525 33.2048 14.0186C33.2048 13.4268 33.6286 13.0039 34.4331 13.0039H40.9591C41.6794 13.0039 42.1873 13.3848 42.1873 14.0186C42.1873 14.4835 41.8487 14.8644 41.0853 15.2873C40.1105 15.8371 39.6446 16.4709 39.2629 17.6556C37.5678 22.8991 35.6613 28.5644 32.738 34.0608C30.7884 37.6967 29.475 40.4029 28.3309 42.1364C27.7799 42.9402 27.3141 43.1511 26.5937 43.1511H22.7377C22.1446 43.1511 22.1015 42.8552 22.1015 42.5593L22.1045 42.5583ZM41.8928 32.4953C40.7066 31.2266 40.8759 29.958 41.8507 28.9863C42.3165 28.5634 42.7824 28.1405 43.2493 28.1405C43.7161 28.1405 43.9275 28.4784 44.3933 29.1132C46.3429 31.7345 48.8004 33.215 51.6396 33.215C54.2244 33.215 55.9195 31.8624 55.9195 29.959C55.9195 28.0555 54.6061 26.619 50.0297 25.9002C43.7161 24.8855 41.5972 22.7711 41.5972 19.2621C41.5972 15.7531 45.1988 12.3701 50.1138 12.3701C53.4189 12.3701 56.766 13.7227 58.3339 15.7531C59.2235 16.8528 58.927 17.9095 58.0794 18.7553C57.5705 19.2631 57.2319 19.516 56.9353 19.516C56.6388 19.516 56.3002 19.3051 55.8764 18.7973C54.012 16.345 52.1055 15.1183 49.3935 15.1183C47.0212 15.1183 45.1567 16.5979 45.1567 18.5013C45.1567 20.4048 46.5553 21.3765 51.2158 22.1803C57.0636 23.153 59.479 25.3943 59.479 29.2412C59.479 33.0881 55.9615 35.9222 50.9624 35.9222C47.5301 35.9222 43.674 34.3577 41.8948 32.4973L41.8928 32.4953ZM61.4686 32.4953C60.2825 31.2266 60.4518 29.958 61.4266 28.9863C61.8924 28.5634 62.3583 28.1405 62.8251 28.1405C63.292 28.1405 63.5034 28.4784 63.9692 29.1132C65.9188 31.7345 68.3763 33.215 71.2155 33.215C73.8002 33.215 75.4953 31.8624 75.4953 29.959C75.4953 28.0555 74.1819 26.619 69.6055 25.9002C63.292 24.8855 61.1731 22.7711 61.1731 19.2621C61.1731 15.7531 64.7747 12.3701 69.6897 12.3701C72.9948 12.3701 76.3419 13.7227 77.9098 15.7531C78.7994 16.8528 78.5028 17.9095 77.6553 18.7553C77.1464 19.2631 76.8077 19.516 76.5112 19.516C76.2147 19.516 75.876 19.3051 75.4523 18.7973C73.5878 16.345 71.6814 15.1183 68.9694 15.1183C66.597 15.1183 64.7326 16.5979 64.7326 18.5013C64.7326 20.4048 66.1312 21.3765 70.7917 22.1803C76.6394 23.153 79.0549 25.3943 79.0549 29.2412C79.0549 33.0881 75.5374 35.9222 70.5383 35.9222C67.106 35.9222 63.2499 34.3577 61.4706 32.4973L61.4686 32.4953ZM79.6039 34.1868C79.6039 33.5949 79.9425 33.1721 80.8752 32.8761C82.1044 32.4533 82.401 31.7345 82.3579 30.1699V18.1195C82.4 16.5549 82.1034 15.8361 80.7049 15.3713C79.7722 15.0753 79.4756 14.6945 79.4756 14.0606C79.5177 13.1729 80.1959 12.961 80.789 12.961L82.4421 13.0029H84.3916C85.4937 13.0029 85.9174 13.3838 86.214 14.4825C86.3412 15.0324 86.7229 15.1163 87.1457 14.6515C88.5443 13.1289 90.6621 12.3681 92.8241 12.3681C96.2564 12.3681 98.9684 14.4395 99.8159 18.3724L102.359 29.873C102.74 31.5645 103.121 32.1983 104.392 32.7482C105.536 33.256 105.875 33.6359 105.875 34.4397C105.875 34.9895 105.451 35.2854 104.689 35.2854H100.706C98.5867 35.2854 98.5866 34.0168 98.1208 31.0147L96.595 20.7397C96.044 17.1037 94.3489 15.5392 91.4255 15.5392C88.5022 15.5392 86.1709 17.9065 86.1709 20.6977V29.958C86.1288 31.6075 86.4674 32.3683 87.9081 32.7492C89.0101 33.0871 89.3908 33.51 89.3908 34.1448C89.3908 35.0755 88.5433 35.2864 87.7809 35.2864H81.0014C80.3232 35.2864 79.6029 35.0755 79.6029 34.1868H79.6039ZM105.112 28.2265C105.112 23.8478 109.137 20.3618 114.094 20.3618C116.044 20.3618 117.908 20.8716 118.67 20.8716C119.094 20.8716 119.221 20.7017 119.221 20.3188C119.221 17.5976 117.061 15.4302 114.263 15.4302C112.145 15.4302 109.814 16.4509 107.442 18.2784C106.806 18.7463 106.256 18.7033 105.916 18.1085C104.687 15.9831 104.857 14.8774 106.552 14.0696C108.544 13.1339 111.976 12.3691 114.561 12.3691C120.069 12.3691 122.104 15.3023 123.374 21.1266L125.154 29.3322C125.536 31.1177 126.298 32.4353 127.57 33.243C128.036 33.5409 128.248 33.8808 128.248 34.2207C128.248 34.8156 127.612 35.4534 126.342 35.4964C124.901 35.4964 123.63 34.7736 122.485 33.286C122.062 32.7332 121.765 32.6912 121.087 33.201C119.137 34.7736 115.875 35.7093 113.502 35.7093C108.587 35.7093 105.113 32.6062 105.113 28.2265H105.112ZM114.179 32.6482C119.052 32.6482 121.382 30.4798 120.959 28.4814L120.45 26.0581C120.026 23.9747 119.56 23.3799 114.942 23.3799C111.509 23.3799 109.094 25.2934 109.094 28.0136C109.094 30.7338 111.297 32.6472 114.178 32.6472L114.179 32.6482Z" fill="#072626"/>
<path d="M160.975 1.88633C160.209 1.10756 159.415 0.782655 158.473 0.863632C158.433 0.866631 158.394 0.872629 158.356 0.881627C158.194 0.916616 158.046 0.993594 157.926 1.10356L157.869 1.15555C157.662 1.34449 157.406 1.57942 157.177 1.83735C156.232 2.90004 155.754 4.18066 155.309 5.50927C154.991 6.459 154.682 7.4747 154.698 8.52939C154.705 8.98326 154.65 9.40214 154.535 9.77303C154.156 10.9917 154.084 12.2683 154.015 13.5019L153.982 14.0758C153.877 15.7733 153.92 17.3948 154.11 18.8964C154.554 22.4003 155.432 25.7554 156.722 28.8664C156.871 29.2263 156.849 29.4793 156.639 29.8362C155.823 31.2208 154.734 32.2715 153.401 32.9583C153.134 33.0962 152.866 33.1942 152.604 33.2502C151.987 33.3831 151.389 33.2982 150.776 32.9882C149.905 32.5494 149.199 32.0025 148.676 31.3637C148.272 30.8709 147.77 30.257 147.518 29.6522C147.38 29.3213 147.395 28.9454 147.559 28.6215L147.792 28.1617C148.106 27.5478 148.375 27.018 148.609 26.4602L148.765 26.0863C149.221 24.9956 149.694 23.8679 150.017 22.7142C150.225 21.9775 150.317 21.2037 150.406 20.4559C150.448 20.107 150.489 19.7581 150.542 19.4122C150.611 18.9693 150.68 18.5265 150.75 18.0836C150.876 17.2778 151.003 16.4731 151.121 15.6663C151.128 15.6153 151.186 15.4014 151.242 15.1944C151.374 14.7056 151.554 14.0368 151.583 13.7069C151.698 12.4113 151.761 9.61107 151.663 8.99825C151.572 8.42442 151.343 7.1208 151.229 6.70692C151.111 6.28405 150.513 5.51827 149.552 5.14138C149.25 5.02342 148.919 4.99742 148.593 5.0684C148.432 5.10339 148.276 5.16038 148.12 5.24435C147.77 5.4323 147.494 5.73821 147.343 6.1061L147.178 6.49998C146.878 7.21578 146.567 7.95656 146.363 8.73933C146.078 9.82501 145.839 10.9397 145.607 12.0184C145.393 13.0151 145.172 14.0468 144.915 15.0485C144.477 16.766 144.31 18.5905 144.404 20.6239C144.425 21.0677 144.498 21.5106 144.569 21.9405C144.653 22.4413 144.739 22.9602 144.735 23.461C144.725 24.7117 144.916 25.9113 145.13 27.134C145.167 27.3469 145.34 27.9027 145.508 28.4406L145.601 28.7395C145.706 29.0744 145.686 29.4373 145.545 29.7612L145.42 30.0541C145.135 30.7219 144.84 31.4127 144.416 31.9945C143.998 32.5684 143.275 33.0632 142.644 33.1992C141.564 33.4241 140.602 33.1012 139.862 32.2645C139.676 32.0535 139.612 31.7706 139.693 31.5057C139.719 31.4207 139.747 31.3367 139.776 31.2528C139.82 31.1228 139.864 30.9928 139.898 30.8609C139.988 30.51 140.089 30.1601 140.19 29.8102C140.426 28.9964 140.67 28.1547 140.767 27.3029C140.804 26.976 140.887 26.6651 140.975 26.3362C141.102 25.8633 141.233 25.3745 141.219 24.8246C141.201 24.1048 141.388 23.3871 141.586 22.6273C141.677 22.2784 141.771 21.9185 141.842 21.5616C141.862 21.4646 141.884 21.3666 141.906 21.2687C141.989 20.8958 142.075 20.5109 142.036 20.129C141.968 19.4632 142.031 18.7884 142.091 18.1366C142.116 17.8687 142.141 17.5997 142.157 17.3308C142.331 14.5196 142.236 12.3703 141.85 10.3649C141.673 9.45212 141.455 8.57938 140.73 7.93656C140.539 7.76661 140.268 7.69863 140.005 7.75562C139.986 7.75962 139.967 7.76461 139.948 7.76961C139.517 7.89358 139.103 8.04653 138.775 8.55438C138.68 8.70134 138.587 8.8413 138.495 8.97626C138.059 9.62907 137.681 10.1939 137.419 11.1276C137.344 11.3936 137.268 11.6585 137.191 11.9244C136.873 13.0211 136.545 14.1557 136.388 15.3014C136.288 16.0242 136.25 16.765 136.214 17.4808C136.182 18.0986 136.15 18.7374 136.078 19.3592C135.999 20.042 135.984 20.6528 136.031 21.2257C136.085 21.8795 136.158 22.5413 136.229 23.1821C136.348 24.2638 136.472 25.3815 136.507 26.4801C136.524 27.039 136.619 27.5788 136.711 28.0997C136.752 28.3336 136.793 28.5665 136.827 28.8005C136.947 29.6202 137.273 30.408 137.59 31.1698C138.092 32.3794 137.999 32.7603 137.012 33.5661C136.714 33.809 136.409 33.965 136.105 34.0309C135.445 34.1729 134.789 33.901 134.154 33.2202C132.954 31.9326 132.487 30.243 132.032 28.5965C131.676 27.3099 131.46 26.5341 131.554 25.1935C131.563 25.0606 131.552 24.6377 131.532 23.9029C131.498 22.6863 131.447 20.8478 131.519 20.133C131.595 19.3752 131.631 18.6034 131.667 17.8567C131.69 17.3638 131.713 16.871 131.748 16.3791C131.79 15.7733 131.932 15.1255 132.071 14.4996C132.177 14.0158 132.287 13.5159 132.352 13.0311C132.372 12.8801 132.332 12.7322 132.239 12.6132C132.146 12.4952 132.012 12.4213 131.863 12.4053L131.689 12.3863C131.629 12.3793 131.57 12.3823 131.511 12.3953C131.311 12.4382 131.152 12.5882 131.098 12.7851C130.932 13.386 130.765 14.4167 130.719 14.7186L130.649 15.1665C130.497 16.1302 130.34 17.1269 130.286 18.1176C130.237 19.0223 130.236 19.9421 130.234 20.8318C130.233 21.4436 130.232 22.0554 130.216 22.6673C130.163 24.7087 130.214 27.118 130.985 29.5113C131.447 30.9478 132.084 32.3864 132.93 33.909C133.625 35.1596 135.289 35.5335 136.574 35.2566C136.98 35.1686 137.346 35.0167 137.632 34.8167C138.063 34.5158 138.318 34.1239 138.565 33.745L138.649 33.6191C138.702 33.5381 138.784 33.4831 138.879 33.4621C138.975 33.4411 139.073 33.4581 139.157 33.5101L139.236 33.5591C139.632 33.805 140.017 34.0429 140.408 34.2729C141.359 34.8317 142.428 34.7657 143.17 34.6098C144.006 34.4298 144.809 33.816 145.371 32.9263C145.719 32.3774 146.004 31.7996 146.306 31.1888L146.488 30.8219C146.498 30.8019 146.513 30.7899 146.533 30.7859C146.543 30.7839 146.594 30.7759 146.614 30.8349C147.078 32.1615 147.821 33.0882 148.825 33.5881L149.161 33.757C150.362 34.3638 151.605 34.9917 152.914 34.7087C153.201 34.6468 153.486 34.5408 153.76 34.3948C155.376 33.5351 156.586 32.5024 157.46 31.2368C157.492 31.1898 157.528 31.1458 157.565 31.1028C157.593 31.0708 157.625 31.0588 157.648 31.0538C157.706 31.0418 157.766 31.0608 157.806 31.1038C157.846 31.1478 157.995 31.3277 158.217 31.5946C159.042 32.5884 160.758 34.6568 161.733 35.6235C161.986 35.8754 162.239 35.9754 162.484 35.9224C162.564 35.9054 162.644 35.8714 162.719 35.8214C162.92 35.6875 163.028 35.4415 162.994 35.1946C162.935 34.7677 162.644 34.4848 162.396 34.2859C160.838 33.0352 158.875 30.254 158.704 29.4703C158.553 28.7705 159.099 27.129 159.278 26.5891C159.313 26.4861 159.337 26.4152 159.345 26.3852C159.395 26.1982 159.459 26.0143 159.524 25.8303C159.61 25.5854 159.699 25.3315 159.753 25.0706C160.064 23.589 160.355 22.3933 160.671 21.3067C161.087 19.8761 161.379 18.3895 161.663 16.9519L161.778 16.3741C161.897 15.7813 162.033 15.1085 162.052 14.5076C162.067 13.9838 162.145 13.4889 162.227 12.9651L162.285 12.5912C162.592 10.5398 162.611 8.43642 162.343 5.97114C162.186 4.51456 161.69 2.61512 160.974 1.88533L160.975 1.88633ZM157.708 27.145C157.674 27.2409 157.637 27.3389 157.601 27.4399C157.557 27.2989 157.514 27.1619 157.472 27.027C157.272 26.3902 157.099 25.8403 156.903 25.2865C156.477 24.0878 156.145 22.7802 155.886 21.2867C155.675 20.064 155.522 18.9473 155.418 17.8737L155.399 17.6787C155.316 16.828 155.231 15.9472 155.326 15.0795C155.436 14.0838 155.53 13.0851 155.623 12.0874C155.702 11.2426 155.781 10.3968 155.87 9.55209C155.918 9.09922 155.991 8.63936 156.063 8.19349C156.116 7.85859 156.169 7.52368 156.213 7.18678C156.362 6.04112 156.86 4.98743 157.342 3.96772L157.561 3.50086C157.708 3.18495 157.938 2.90703 158.204 2.58513L158.302 2.46716C158.378 2.37519 158.483 2.31121 158.599 2.28622C158.686 2.26722 158.778 2.27122 158.863 2.29621L159.325 2.43517C159.729 2.55714 160.053 2.86505 160.191 3.25893C160.313 3.60983 160.463 4.01571 160.679 4.3776C160.838 4.64453 160.881 4.92445 160.927 5.22036C160.949 5.35332 160.97 5.48628 161 5.61924C161.061 5.88216 161.09 6.15009 161.121 6.433C161.147 6.67093 161.174 6.91686 161.221 7.15879C161.424 8.19149 161.301 9.24318 161.183 10.2609C161.151 10.5318 161.12 10.8037 161.094 11.0756C161.055 11.4885 161.003 11.8994 160.95 12.3113C160.897 12.7192 160.846 13.126 160.806 13.5349C160.804 13.5579 160.792 13.6329 160.775 13.7359C160.722 14.0678 160.633 14.6236 160.628 14.8925C160.588 16.816 160.1 18.6984 159.628 20.5189L159.54 20.8598C159.105 22.5433 158.637 24.1808 158.195 25.6994C158.06 26.1632 157.897 26.6181 157.708 27.145ZM146.391 14.5786C146.416 14.2707 146.44 13.9798 146.52 13.6879C146.691 13.0681 147.301 10.7627 147.404 10.1799C147.547 9.36015 147.773 8.53539 148.116 7.58367C148.209 7.32474 148.333 7.09581 148.496 6.88287C148.618 6.72292 148.786 6.61595 148.983 6.57396C149.327 6.49998 149.67 6.63894 149.855 6.92786C150.009 7.16779 150.118 7.45371 150.188 7.8046C150.661 10.1649 150.387 12.5402 150.095 14.5806C150.028 15.0435 149.911 15.5154 149.797 15.9712C149.626 16.661 149.448 17.3748 149.435 18.0926C149.418 19.0523 148.883 22.1584 148.739 22.7592C148.617 23.2681 148.387 23.7709 148.167 24.2568C148.104 24.3948 148.042 24.5327 147.981 24.6707C147.75 25.1965 147.497 25.7244 147.251 26.2342L147.085 26.5801C147.014 26.7301 146.939 26.878 146.863 27.025C146.836 27.078 146.794 27.097 146.764 27.103C146.692 27.118 146.604 27.084 146.577 26.975C146.481 26.5821 146.381 26.1752 146.338 25.7764C146.223 24.7067 146.123 23.615 146.028 22.5603C145.96 21.8125 145.893 21.0647 145.819 20.3169C145.642 18.5305 145.954 16.832 146.282 15.4054C146.346 15.1265 146.369 14.8485 146.39 14.5786H146.391ZM137.673 16.0892C137.717 15.2304 137.758 14.4187 138.066 13.6369C138.244 13.184 138.328 12.7072 138.408 12.2453C138.515 11.6305 138.618 11.0497 138.926 10.5248C139.088 10.2479 139.7 9.38414 139.839 9.1882C139.866 9.1762 139.893 9.1682 139.921 9.16221C140.136 9.11522 140.359 9.23618 140.438 9.44112C140.55 9.73404 140.663 10.0459 140.706 10.3519C140.757 10.7068 140.816 11.0646 140.874 11.4225C141.06 12.5572 141.252 13.7309 141.161 14.8495C141.114 15.4314 141.102 16.0222 141.091 16.594C141.072 17.5498 141.053 18.5385 140.864 19.4912C140.836 19.6301 140.574 21.4956 140.569 21.8495C140.558 22.5213 140.458 23.2261 140.252 24.0669C140.177 24.3698 140.131 24.6787 140.087 24.9776C140.028 25.3775 139.967 25.7903 139.837 26.1792C139.74 26.4691 139.662 26.7661 139.597 27.018C139.328 28.0787 139.095 28.9244 138.802 29.9951L138.78 30.0751C138.764 30.1351 138.718 30.1531 138.692 30.1591C138.682 30.1611 138.594 30.1781 138.558 30.0931C138.14 29.0874 137.991 28.1337 137.876 27.2419C137.716 26.0073 137.618 24.7417 137.524 23.517C137.487 23.0401 137.45 22.5623 137.409 22.0854C137.26 20.3239 137.424 18.5895 137.584 17.2758C137.632 16.8809 137.652 16.4781 137.672 16.0892H137.673Z" fill="#072626"/>
</svg>
